name rise30.6535peak61.5555fall82.9339.mot
datacolumns 19
datarows 12
range 12.86161000000000 12.87995000000000
endheader
time	ground_force1_vx	ground_force1_vy	ground_force1_vz	ground_force1_px	ground_force1_py	ground_force1_pz	ground_force2_vx	ground_force2_vy	ground_force2_vz	ground_force2_px	ground_force2_py	ground_force2_pz	ground_torque1_x	ground_torque1_y	ground_torque1_z	ground_torque2_x	ground_torque2_y	ground_torque2_z	
12.86161000000000	15.55511600000000	707.86325199999999	38.15678700000000	0.26798400000000	0.00000000000000	0.07121100000000	0.00000000000000	0.00000000000000	0.00000000000000	0.00000000000000	0.00000000000000	0.00000000000000	0.00000000000000	17.56072300000000	0.00000000000000	0.00000000000000	0.00000000000000	0.00000000000000	
12.86327800000000	15.16275900000000	708.13853600000004	38.09480600000000	0.26715700000000	0.00000000000000	0.07117400000000	0.00000000000000	0.00000000000000	0.00000000000000	0.00000000000000	0.00000000000000	0.00000000000000	0.00000000000000	17.53861000000000	0.00000000000000	0.00000000000000	0.00000000000000	0.00000000000000	
12.86494300000000	14.76281000000000	708.44316100000003	38.03641600000000	0.26631300000000	0.00000000000000	0.07113700000000	0.00000000000000	0.00000000000000	0.00000000000000	0.00000000000000	0.00000000000000	0.00000000000000	0.00000000000000	17.51993100000000	0.00000000000000	0.00000000000000	0.00000000000000	0.00000000000000	
12.86661400000000	14.35510700000000	708.77720699999998	37.98152200000000	0.26545000000000	0.00000000000000	0.07110000000000	0.00000000000000	0.00000000000000	0.00000000000000	0.00000000000000	0.00000000000000	0.00000000000000	0.00000000000000	17.50461900000000	0.00000000000000	0.00000000000000	0.00000000000000	0.00000000000000	
12.86828400000000	13.93951400000000	709.14077699999996	37.93002900000000	0.26456900000000	0.00000000000000	0.07106400000000	0.00000000000000	0.00000000000000	0.00000000000000	0.00000000000000	0.00000000000000	0.00000000000000	0.00000000000000	17.49260500000000	0.00000000000000	0.00000000000000	0.00000000000000	0.00000000000000	
12.86994300000000	13.51591700000000	709.53400099999999	37.88184200000000	0.26366800000000	0.00000000000000	0.07102700000000	0.00000000000000	0.00000000000000	0.00000000000000	0.00000000000000	0.00000000000000	0.00000000000000	0.00000000000000	17.48381600000000	0.00000000000000	0.00000000000000	0.00000000000000	0.00000000000000	
12.87161700000000	13.08422700000000	709.95703400000002	37.83686600000000	0.26274800000000	0.00000000000000	0.07099100000000	0.00000000000000	0.00000000000000	0.00000000000000	0.00000000000000	0.00000000000000	0.00000000000000	0.00000000000000	17.47817900000000	0.00000000000000	0.00000000000000	0.00000000000000	0.00000000000000	
12.87327700000000	12.64437500000000	710.41004999999996	37.79500900000000	0.26180900000000	0.00000000000000	0.07095500000000	0.00000000000000	0.00000000000000	0.00000000000000	0.00000000000000	0.00000000000000	0.00000000000000	0.00000000000000	17.47561500000000	0.00000000000000	0.00000000000000	0.00000000000000	0.00000000000000	
12.87495000000000	12.19631400000000	710.89324899999997	37.75618100000000	0.26085000000000	0.00000000000000	0.07091900000000	0.00000000000000	0.00000000000000	0.00000000000000	0.00000000000000	0.00000000000000	0.00000000000000	0.00000000000000	17.47604700000000	0.00000000000000	0.00000000000000	0.00000000000000	0.00000000000000	
12.87661800000000	11.74002100000000	711.40684899999997	37.72029200000000	0.25987000000000	0.00000000000000	0.07088400000000	0.00000000000000	0.00000000000000	0.00000000000000	0.00000000000000	0.00000000000000	0.00000000000000	0.00000000000000	17.47939300000000	0.00000000000000	0.00000000000000	0.00000000000000	0.00000000000000	
12.87829200000000	11.27549200000000	711.95108300000004	37.68725900000000	0.25887100000000	0.00000000000000	0.07084900000000	0.00000000000000	0.00000000000000	0.00000000000000	0.00000000000000	0.00000000000000	0.00000000000000	0.00000000000000	17.48557300000000	0.00000000000000	0.00000000000000	0.00000000000000	0.00000000000000	
12.87995000000000	10.80274300000000	712.52620500000000	37.65699900000000	0.25785100000000	0.00000000000000	0.07081500000000	0.00000000000000	0.00000000000000	0.00000000000000	0.00000000000000	0.00000000000000	0.00000000000000	0.00000000000000	17.49450400000000	0.00000000000000	0.00000000000000	0.00000000000000	0.00000000000000	
